<?xml version="1.0" encoding="utf-8"?>
<!-- Generator: Adobe Illustrator 24.0.2, SVG Export Plug-In . SVG Version: 6.00 Build 0)  -->
<svg version="1.1" id="Layer_1" xmlns="http://www.w3.org/2000/svg" xmlns:xlink="http://www.w3.org/1999/xlink" x="0px" y="0px"
	 viewBox="0 0 206.1584 33.6522" enable-background="new 0 0 206.1584 33.6522" xml:space="preserve">
<g display="none">
	<path display="inline" fill="#E0001B" d="M20.6779,20.9887c-0.7729,0-1.4917-0.146-2.1562-0.437
		c-0.665-0.291-1.248-0.7124-1.748-1.2637c-0.5005-0.5508-0.8867-1.2256-1.1592-2.0234s-0.4087-1.7036-0.4087-2.7168
		c0-1.3428,0.2441-2.4985,0.7314-3.4678c0.4878-0.9688,1.1528-1.7129,1.9951-2.2324c0.8423-0.519,1.8018-0.7788,2.8784-0.7788
		c0.7603,0,1.4346,0.1582,2.0239,0.4751c0.5889,0.3164,1.0669,0.6714,1.4341,1.064l-0.9878,1.1021
		c-0.3042-0.3423-0.6621-0.6113-1.0737-0.8076s-0.877-0.2944-1.3965-0.2944c-0.7598,0-1.4248,0.1992-1.9946,0.5981
		c-0.5703,0.3994-1.0137,0.9629-1.3301,1.6914c-0.3169,0.7285-0.4751,1.5991-0.4751,2.6123c0,1.0137,0.1582,1.8906,0.4751,2.6313
		c0.3164,0.7412,0.7598,1.311,1.3301,1.71c0.5698,0.3989,1.2471,0.5986,2.0327,0.5986c0.5571,0,1.0547-0.1167,1.4917-0.3516
		c0.437-0.2344,0.8452-0.5605,1.2256-0.9785l0.9878,1.064c-0.4814,0.5703-1.042,1.0137-1.6816,1.3301
		S21.5012,20.9887,20.6779,20.9887z"/>
</g>
<g>
	<path fill="#1A1818" d="M58.6833,29.0874h-2.2114V17.9316c0-2.5742-0.8911-4.0923-3.4985-4.0923
		c-2.2114,0-4.5874,1.4849-5.6108,2.4092v12.8389h-2.2114V4.1689h2.2114v10.1323c1.8154-1.353,3.8618-2.4092,6.2051-2.4092
		c3.5977,0,5.1157,2.0132,5.1157,5.8086V29.0874z"/>
	<path fill="#1A1818" d="M61.882,20.7373c0-5.479,2.8384-8.8452,8.02-8.8452c5.1489,0,7.2939,3.3994,7.2939,8.416
		c0,5.5449-2.2114,9.1753-7.7231,9.1753C63.7629,29.4833,61.882,25.6879,61.882,20.7373z M74.8859,20.5063
		c0-5.0171-1.8813-6.7002-5.1157-6.7002c-3.3335,0-5.6108,2.0464-5.6108,6.7988c0,4.7197,1.8149,6.9971,5.4785,6.9971
		C72.8723,27.602,74.8859,25.622,74.8859,20.5063z"/>
	<path fill="#1A1818" d="M82.8698,29.0874h-2.2114V12.2221h1.9473l0.1323,2.1123c1.8149-1.3535,3.6636-2.4424,6.0068-2.4424
		c2.3101,0,3.5977,0.8579,4.1914,2.4751c1.8154-1.353,3.7627-2.4751,6.106-2.4751c3.5977,0,4.6865,2.0132,4.6865,5.8086v11.3867
		h-2.2109V17.9316c0-2.5742-0.4292-4.0923-2.9375-4.0923c-1.9146,0-4.1255,1.3198-5.248,2.2441
		c0.0664,0.4951,0.0991,1.0562,0.0991,1.6172v11.3867h-2.2114V17.9316c0-2.5742-0.4287-4.0923-2.937-4.0923
		c-2.0137,0-4.3896,1.4849-5.4131,2.4092V29.0874z"/>
	<path fill="#1A1818" d="M106.926,20.6713c0-6.1719,3.5645-8.7793,7.8218-8.7793c4.6206,0,6.502,3.1353,6.502,7.1621
		c-0.0327,0.6597-0.0659,1.353-0.165,2.0459h-11.8154c0.1318,5.0498,2.4751,6.4033,5.4126,6.4033
		c2.6406,0,3.7295-1.0894,4.2578-3.2017l2.0791,0.396c-0.7261,3.3335-3.3994,4.7856-6.502,4.7856
		C108.6423,29.4833,106.926,25.3247,106.926,20.6713z M118.9396,19.3178c0.0659-3.4653-1.2544-5.5117-4.3896-5.5117
		c-2.5742,0-5.083,1.5845-5.248,5.5117H118.9396z"/>
	<path fill="#1A1818" d="M126.4948,29.0874h-1.6172V12.3207h1.4521l0.1323,2.2114c1.9141-1.4189,3.7954-2.5415,6.1719-2.5415
		c2.376,0,3.5972,0.9243,4.1587,2.5415c1.9141-1.3862,3.8945-2.5415,6.2378-2.5415c3.6636,0,4.5874,2.0464,4.5874,5.8423v11.2544
		h-1.6172V17.8989c0-2.8384-0.4292-4.4556-3.1353-4.4556c-2.1123,0-4.522,1.4521-5.7759,2.4751
		c0.0991,0.5942,0.1318,1.2544,0.1318,1.9146v11.2544h-1.6172V17.8989c0-2.8384-0.4619-4.4556-3.1685-4.4556
		c-2.2114,0-4.8516,1.6499-5.9409,2.6733V29.0874z"/>
	<path fill="#1A1818" d="M163.7199,26.7109c0,0.9243,0.165,1.3862,1.0234,1.3862c0.2969,0,0.5938-0.0659,1.0229-0.1978
		l0.1318,1.0562c-0.6597,0.3301-1.0889,0.396-1.7822,0.396c-1.4521,0-1.98-1.0894-1.9141-2.1123
		c-1.2871,1.2871-3.3003,2.2441-5.6768,2.2441c-4.2905,0-4.9507-2.9702-4.9507-4.5547c0-4.7856,4.3237-5.6108,8.2183-5.6108
		c0.792,0,1.5513,0.0332,2.2773,0.0659v-1.4849c0-3.3008-0.8252-4.5547-3.9937-4.5547c-2.8057,0-3.8945,1.0562-4.2578,3.1353
		l-1.5513-0.2642c0.5283-3.1021,2.5747-4.2246,5.9409-4.2246c3.9277,0,5.5117,1.4526,5.5117,5.6108V26.7109z M162.1027,20.77
		c-0.7588-0.0659-1.5513-0.0986-2.5742-0.0986c-3.3667,0-6.2378,0.6929-6.2378,4.0923c0,1.8154,0.6929,3.3335,3.4653,3.3335
		c2.1123,0,4.1914-0.9902,5.3467-2.3765V20.77z"/>
	<path fill="#1A1818" d="M176.5895,28.4931c-0.792,0.561-2.4092,0.9902-3.5972,0.9902c-3.1025,0-4.2578-1.2871-4.2578-4.2246
		V13.7402h-2.6733v-1.4194h2.6733V7.5351l1.6172-0.2637v5.0493h4.7529v1.4194h-4.7529v11.1885c0,2.0132,0.4619,3.2017,2.7393,3.2017
		c1.0234,0,2.2773-0.4292,3.0366-0.8911L176.5895,28.4931z"/>
	<path fill="#1A1818" d="M177.5788,20.7041c0-6.1719,3.6636-8.7134,7.6899-8.7134c4.4556,0,6.271,3.0366,6.271,6.8652
		c0,0.7261-0.0332,1.4189-0.165,2.1782h-12.0796c0.1318,5.5449,2.6069,6.8979,5.8086,6.8979c2.6406,0,4.0264-1.188,4.6206-3.4653
		l1.5513,0.2969c-0.8252,3.3994-3.3994,4.7197-6.3037,4.7197C179.196,29.4833,177.5788,25.3579,177.5788,20.7041z M189.8566,19.6152
		c0.0986-3.9937-1.3203-6.1392-4.7861-6.1392c-2.8052,0-5.4785,1.6831-5.7754,6.1392H189.8566z"/>
	<path fill="#1A1818" d="M205.6965,17.0078l-1.5513,0.1978c-0.2642-2.376-1.0894-3.8286-4.0928-3.8286
		c-3.1021,0-3.9604,1.5513-3.9604,3.0698c0,2.4092,1.9805,2.9043,4.4888,3.4321c2.6733,0.561,5.5776,1.1885,5.5776,4.7529
		c0,2.8052-1.9141,4.8516-5.9409,4.8516c-3.5312,0-5.7759-1.353-6.3037-5.1489l1.5513-0.2969
		c0.4287,2.0796,1.2539,3.9937,4.8184,3.9937c2.3438,0,4.1919-0.8911,4.1919-3.3335c0-2.3105-1.7822-2.8716-4.1587-3.3335
		c-2.7725-0.5278-5.875-1.1221-5.875-4.7856c0-3.0693,2.7065-4.5879,5.71-4.5879
		C204.2111,11.9907,205.4323,14.0043,205.6965,17.0078z"/>
</g>
<g display="none">
	<path display="inline" fill="none" stroke="#1A1818" stroke-width="0.5817" stroke-linecap="round" stroke-miterlimit="10" d="
		M19.6137,25.578c-0.1279,0.137-1.358,1.4132-3.0393,1.1529c-0.7609-0.1178-1.2979-0.5013-1.5721-0.7336"/>
	
		<line display="inline" fill="none" stroke="#1A1818" stroke-width="0.5817" stroke-linecap="round" stroke-miterlimit="10" x1="17.344" y1="21.4177" x2="17.344" y2="22.5197"/>
	<path display="inline" fill="#4C2A0E" d="M15.922,20.468c0.2346-0.2062,0.5469-0.4341,0.9447-0.6213
		c1.0889-0.5124,2.1257-0.3941,2.5924-0.3088c-0.4152-0.2666-1.3919-0.8071-2.6604-0.7135
		c-0.4202,0.031-0.7817,0.1249-1.0721,0.2293c0.0439,0.2265,0.0841,0.4658,0.1186,0.7171
		C15.8784,20.013,15.9035,20.2458,15.922,20.468z"/>
</g>
<g>
	<path fill="#1C1850" d="M17.5414,19.1114c0.8859-0.4507,2.518-1.145,4.3366-1.0968c1.2868,0.0341,1.8027,0.4191,2.0356,0.631
		c0.2655,0.2416,0.4617,0.5508,0.599,0.9244c1.1408-0.8503,2.3644-1.5554,3.837-1.5554c2.2605,0,2.9453,1.2649,2.9453,3.6504v7.1556
		H29.905v-7.0104c0-1.6179-0.2694-2.5721-1.8459-2.5721c-1.2033,0-2.5924,0.8301-3.2975,1.4102
		c0.0414,0.3116,0.0616,0.6637,0.0616,1.0167v7.1556h-1.3891v-7.0104c0-1.0164-0.1066-1.7709-0.5767-2.1914
		c-0.4285-0.3833-0.9725-0.3782-1.2692-0.3807c-1.8345-0.0156-3.165,1.759-3.4202,2.112c-0.0029-0.1203-0.0105-0.2448-0.024-0.3733
		C18.064,20.2153,17.8061,19.5858,17.5414,19.1114z"/>
	<path fill="#1C1850" d="M29.4228,29.3024v-7.492c0-1.774-0.3573-2.0897-1.3633-2.0897c-0.8866,0-2.0191,0.5654-2.7887,1.1419
		c0.0228,0.256,0.0346,0.5285,0.0346,0.8026v7.6373h-2.3536v-7.492c-0.0001-0.1546-0.008-0.3795-0.0459-0.6477
		c-0.0853-0.6043-0.128-0.9065-0.3718-1.1261c-0.3427-0.3087-0.9021-0.3152-0.9268-0.3152c-0.0002,0-0.0003,0-0.0008,0
		c-1.5494,0-2.7227,1.4631-3.0471,1.9115l-0.8364,1.1576l-0.0369-1.4277c-0.0031-0.1084-0.0102-0.2207-0.022-0.3353
		c-0.0605-0.5772-0.2435-1.1434-0.5442-1.6814l-0.2442-0.4374l0.4468-0.2278c1.4811-0.7531,2.9944-1.1513,4.3766-1.1513
		l0.1916,0.0024c1.0508,0.0283,1.8188,0.2756,2.3473,0.7563c0.1751,0.1602,0.3283,0.3455,0.4578,0.5552
		c1.0044-0.6934,2.2044-1.3115,3.6533-1.3115c3.0384,0,3.4279,2.2083,3.4279,4.1331v7.6373H29.4228z"/>
	<path fill="#2C9ADC" d="M16.3024,29.3024v-7.492c0-1.734-0.6864-2.0897-1.7167-2.0897c-1.1136,0-2.3835,0.7201-3.0439,1.2534
		v8.3284H9.1882V12.6787h2.3536v5.9339c1.1772-0.7343,2.2798-1.0806,3.4177-1.0806c2.4533,0,3.6965,1.39,3.6965,4.1332v7.6373
		H16.3024z"/>
	<path fill="#2C9ADC" d="M18.174,28.8206h-1.3891v-7.0104c0-1.6179-0.5607-2.5721-2.1989-2.5721
		c-1.3899,0-2.8828,0.9331-3.5263,1.514v8.0684H9.6707V13.1609h1.3891v6.3678c1.1408-0.8503,2.4269-1.514,3.8995-1.514
		c2.2605,0,3.2147,1.2649,3.2147,3.6504V28.8206z"/>
	<path fill="#1C1850" d="M18.3121,21.2968"/>
	<path fill="#1C1850" d="M18.312,21.2971"/>
	<g>
		<path fill="none" stroke="#AA0622" stroke-width="1.7284" stroke-miterlimit="10" d="M39.1444,22.802l-3.8286,3.8286"/>
		<path fill="none" stroke="#AA0622" stroke-width="1.7284" stroke-miterlimit="10" d="M6.1318,27.1128L1.821,22.802"/>
		<path fill="none" stroke="#353C4A" stroke-width="1.7284" stroke-miterlimit="10" d="M14.2263,7.7867h17.4774
			c1.7518,0,3.1851,1.2437,3.1851,2.7638v19.4738c0,1.5201-1.4333,2.7638-3.1851,2.7638H9.2616
			c-1.7518,0-3.1851-1.2437-3.1851-2.7638V10.5505c0-1.5201,1.4333-2.7638,3.1851-2.7638H14.2263"/>
		<path fill="none" stroke="#AA0622" stroke-width="1.7284" stroke-miterlimit="10" d="M1.821,22.802
			c-1.2756-1.2756-1.2756-3.3631,0-4.6387L18.1633,1.821c1.2756-1.2756,3.3631-1.2756,4.6387,0l3.6153,3.6153"/>
		<path fill="none" stroke="#AA0622" stroke-width="1.7284" stroke-miterlimit="10" d="M26.4174,5.4363l12.7271,12.7271
			c1.2756,1.2756,1.2756,3.3631,0,4.6387"/>
	</g>
	<path fill="#1A1818" d="M36.4112,14.8782"/>
</g>
<g id="Layer_2">
</g>
<g display="none">
	<path display="inline" fill="none" stroke="#AA0622" stroke-miterlimit="10" d="M31.8647,8.6002l1.9121,1.9121"/>
	
		<line display="inline" fill="none" stroke="#AA0622" stroke-miterlimit="10" x1="33.7768" y1="10.5123" x2="35.5636" y2="12.2991"/>
	
		<line display="inline" fill="none" stroke="#AA0622" stroke-miterlimit="10" x1="23.2906" y1="14.8559" x2="25.8474" y2="12.2991"/>
	<path display="inline" fill="none" stroke="#AA0622" stroke-miterlimit="10" d="M39.2823,16.0178l0.7503,0.7503
		c0.6376,0.6376,0.6376,1.6809,0,2.3184l-1.9122,1.9122"/>
	<path display="inline" fill="none" stroke="#AA0622" stroke-miterlimit="10" d="M23.2905,20.9986l-1.9121-1.9121
		c-0.6376-0.6376-0.6376-1.6809,0-2.3184l1.9122-1.9122"/>
	<path display="inline" fill="none" stroke="#353C4A" stroke-miterlimit="10" d="M27.4853,10.5123h8.9958
		c0.9017,0,1.6394,0.7377,1.6394,1.6394v11.5511c0,0.9017-0.7377,1.6394-1.6394,1.6394H24.9299
		c-0.9017,0-1.6394-0.7377-1.6394-1.6394V12.1517c0-0.9017,0.7377-1.6394,1.6394-1.6394H27.4853"/>
	<path display="inline" fill="none" stroke="#AA0622" stroke-miterlimit="10" d="M25.8474,12.2991l3.6989-3.6989
		c0.6376-0.6376,1.6809-0.6376,2.3184,0"/>
	
		<line display="inline" fill="none" stroke="#AA0622" stroke-miterlimit="10" x1="38.1204" y1="14.8559" x2="39.2823" y2="16.0178"/>
	
		<line display="inline" fill="none" stroke="#AA0622" stroke-miterlimit="10" x1="35.5636" y1="12.2991" x2="38.1204" y2="14.8559"/>
</g>
<g>
</g>
<g>
</g>
<g>
</g>
<g>
</g>
<g>
</g>
<g>
</g>
</svg>
